<?xml version="1.0" encoding="utf-8"?>
<!-- Generator: Adobe Illustrator 16.0.0, SVG Export Plug-In . SVG Version: 6.00 Build 0)  -->
<!DOCTYPE svg PUBLIC "-//W3C//DTD SVG 1.1//EN" "http://www.w3.org/Graphics/SVG/1.1/DTD/svg11.dtd">
<svg version="1.1" id="Layer_1" xmlns="http://www.w3.org/2000/svg" xmlns:xlink="http://www.w3.org/1999/xlink" x="0px" y="0px"
	 width="233.588px" height="150.849px" viewBox="0 0 233.588 150.849" enable-background="new 0 0 233.588 150.849"
	 xml:space="preserve">
<g>
	<path fill="#EFE839" d="M138.065,21.519c-11.772,1.427-23.814,5.348-24.611,17.208c-0.371,5.544,1.316,9.72,3.222,13.742
		c-4.783-4.766-11.694-8.579-21.381-7.651c5.901,1.693,12.862,4.925,16.604,9.197c0.791,0.914,1.948,2.481,1.676,3.822
		c-0.453,2.258-4.567,1.798-7.055,1.919c5.16,2.089,10.928,5.85,18.281,5.603c3.682-0.112,6.382-2.372,6.095-6.559
		c-0.518-7.523-5.999-13.962-6.577-22.463c-0.641-9.594,6.034-13.114,13.513-14.692c0.146,0.048,0.386,0,0.437-0.051
		c0.054-0.033,0.019-0.075-0.194-0.075H138.065z"/>
</g>
<g>
	<defs>
		<path id="SVGID_1_" d="M138.065,21.518c-11.773,1.427-23.814,5.348-24.61,17.208c-0.372,5.544,1.316,9.72,3.222,13.742
			c-4.783-4.765-11.694-8.579-21.381-7.651c5.901,1.693,12.862,4.925,16.604,9.197c0.791,0.915,1.948,2.482,1.676,3.823
			c-0.453,2.258-4.567,1.798-7.055,1.918c5.16,2.089,10.927,5.851,18.281,5.604c3.683-0.114,6.382-2.373,6.096-6.559
			c-0.52-7.523-5.999-13.963-6.577-22.463c-0.642-9.594,6.033-13.114,13.511-14.693c0.147,0.049,0.387,0,0.438-0.05
			c0.054-0.034,0.019-0.076-0.194-0.076H138.065z"/>
	</defs>
	<use xlink:href="#SVGID_1_"  overflow="visible" fill="#EFE839"/>
	<clipPath id="SVGID_2_">
		<use xlink:href="#SVGID_1_"  overflow="visible"/>
	</clipPath>
</g>
<g>
	<rect x="28.382" y="109.563" fill="#EFE839" width="176.822" height="0.718"/>
	<path fill="#EFE839" d="M199.976,87.7l-0.869-0.588c-3.022-2.051-3.85-3.088-3.85-4.791c0-2.167,2.053-2.937,3.805-2.937
		c2.9,0,3.714,1.281,3.734,1.325c0.153,0.271,0.385,1.041,0.418,1.37c0.039,0.212,0.087,0.605,0.542,0.605
		c0.512,0,0.512-0.554,0.512-0.92c0-1.586,0.077-2.512,0.12-2.908c0.009-0.116,0.017-0.19,0.017-0.227
		c0-0.467-0.417-0.467-0.575-0.467c-0.231,0-0.456,0-1.018-0.13c-0.73-0.176-1.957-0.356-3.223-0.356
		c-4.279,0-7.05,2.287-7.05,5.822c0,2.266,1.306,4.159,4.491,6.533l1.391,1.049c2.727,2.022,3.754,2.973,3.754,4.937
		c0,2.259-1.66,3.664-4.328,3.664c-1.915,0-4.125-0.715-4.577-2.721c-0.099-0.385-0.099-0.781-0.099-1.014
		c0-0.446-0.279-0.606-0.541-0.606c-0.187,0-0.496,0.095-0.496,0.728c-0.012,0.096-0.019,0.227-0.041,0.382
		c-0.051,0.591-0.141,1.59-0.141,2.765c0,0.799,0.029,1.059,0.602,1.354c1.58,0.74,3.719,0.818,4.563,0.818
		c2.216,0,3.902-0.366,5.014-1.081c1.968-1.287,2.97-3.057,2.97-5.264C205.101,92.312,203.617,90.181,199.976,87.7"/>
	<path fill="#EFE839" d="M56.894,73.063c-0.727,0-1.664,0.048-2.28,0.083c-0.27,0.013-0.468,0.026-0.531,0.026
		c-0.152,0-0.455-0.013-0.845-0.036c-0.742-0.029-1.749-0.073-2.688-0.073c-0.377,0-1.077,0-1.077,0.569
		c0,0.184,0.091,0.491,0.679,0.491c0.379,0,0.892,0,1.244,0.118c0.27,0.136,0.312,0.418,0.312,0.575c0,0.318-0.175,0.889-0.31,1.296
		c-0.733,2.391-5.188,14.059-7.436,19.346l-6.67-17.818c-0.502-1.271-0.962-2.47-0.962-2.888c0-0.201,0.052-0.358,0.3-0.468
		c0.261-0.115,0.839-0.161,1.26-0.161c0.574,0,0.641-0.37,0.641-0.532c0-0.528-0.786-0.528-1.256-0.528
		c-0.91,0-1.942,0.044-2.623,0.078c-0.348,0.018-0.61,0.031-0.729,0.031c-0.144,0-0.463-0.013-0.89-0.031
		c-0.862-0.03-2.17-0.078-3.33-0.078c-0.512,0-1.215,0-1.215,0.528c0,0.33,0.221,0.532,0.568,0.532c0.19,0,0.791,0,1.289,0.132
		c1.137,0.335,1.641,0.641,2.412,2.614l8.84,22.106l0.098,0.251c0.66,1.662,0.857,2.162,1.455,2.162
		c0.456,0,0.623-0.366,1.172-1.587c0.164-0.359,0.353-0.787,0.599-1.313c0.809-1.718,2.34-5.384,4.46-10.451l1.642-3.968
		c1.293-3.107,2.303-5.561,2.594-6.296c0.947-2.378,1.466-2.974,1.876-3.257c0.619-0.393,1.346-0.393,1.583-0.393
		c0.616,0,0.711-0.323,0.711-0.532C57.787,73.242,57.488,73.063,56.894,73.063"/>
	<path fill="#EFE839" d="M64.68,99.865c-0.243,0-0.878-0.056-1.354-0.132c-0.682-0.105-0.778-0.43-0.889-1.333
		c-0.138-1.211-0.138-3.504-0.138-6.4v-5.248c0-4.615,0-5.448,0.034-6.372c0.069-1.018,0.223-1.268,0.864-1.399
		c0.326-0.062,0.519-0.062,0.716-0.062c0.255,0,0.516-0.263,0.516-0.519c0-0.341-0.254-0.517-0.76-0.517
		c-0.679,0-1.922,0.041-2.6,0.061c-0.256,0.008-0.437,0.013-0.476,0.013c-0.049,0-0.248-0.005-0.527-0.018
		c-0.688-0.019-1.864-0.056-2.578-0.056c-0.51,0-0.764,0.176-0.764,0.517c0,0.242,0.209,0.519,0.516,0.519
		c0.191,0,0.562,0.033,0.888,0.103c0.448,0.091,0.694,0.322,0.762,1.358c0.072,0.935,0.072,1.765,0.072,6.372V92
		c0,2.425-0.023,5.078-0.178,6.4c-0.107,0.917-0.208,1.248-0.597,1.339c-0.257,0.07-0.621,0.126-0.873,0.126
		c-0.328,0-0.522,0.269-0.522,0.522c0,0.195,0.102,0.518,0.762,0.518c0.666,0,1.807-0.06,2.493-0.086
		c0.294-0.016,0.494-0.022,0.546-0.022c0.033,0,0.145,0.004,0.334,0.013c0.647,0.026,2.17,0.096,3.514,0.096
		c0.703,0,0.761-0.402,0.761-0.518C65.202,100.133,65.002,99.865,64.68,99.865"/>
	<path fill="#EFE839" d="M90.66,77.883c-0.826,0-1.553,0.037-2.047,0.053c-0.26,0.014-0.458,0.021-0.571,0.021
		c-0.116,0-0.357-0.007-0.673-0.021c-0.639-0.016-1.609-0.053-2.549-0.053c-0.254,0-0.86,0-0.86,0.484
		c0,0.326,0.208,0.551,0.513,0.551c0.229,0,0.914,0.034,1.455,0.134c0.673,0.128,0.9,0.487,0.934,2.501l0.306,14.19
		c-0.322-0.329-0.721-0.756-1.189-1.255c-1.514-1.607-3.597-3.812-5.608-5.899c-3.232-3.32-6.297-6.549-8.139-8.48
		c-0.855-0.896-1.426-1.499-1.58-1.653l-0.144-0.143c-0.465-0.482-0.856-0.843-1.237-0.843c-0.634,0-0.685,0.912-0.685,1.768v17.021
		c0,2.653-0.129,3.294-0.687,3.446c-0.423,0.131-0.956,0.16-1.176,0.16c-0.286,0-0.517,0.23-0.517,0.522
		c0,0.518,0.552,0.518,0.759,0.518c0.97,0,1.904-0.058,2.465-0.086c0.245-0.016,0.423-0.022,0.509-0.022
		c0.075,0,0.227,0.007,0.438,0.022c0.58,0.023,1.554,0.086,2.808,0.086c0.688,0,0.83-0.28,0.83-0.518
		c0-0.292-0.226-0.522-0.517-0.522c-0.32,0-0.979-0.04-1.469-0.163c-0.621-0.152-0.913-0.644-0.986-3.134l-0.332-13.29
		c1.304,1.407,4.181,4.423,7.486,7.893c3.219,3.358,7.674,7.745,8.015,8.049c1.827,1.676,2.11,1.888,2.522,1.888
		c0.515,0,0.515-0.412,0.515-2.398L89.326,81.3c0-1.86,0.113-2.157,0.861-2.32c0.328-0.062,0.551-0.062,0.686-0.062
		c0.349,0,0.617-0.291,0.617-0.551C91.489,77.883,90.889,77.883,90.66,77.883"/>
	<path fill="#EFE839" d="M119.725,99.865c-0.218,0-0.895-0.056-1.321-0.132c-0.713-0.105-0.779-0.405-0.887-1.333
		c-0.159-1.331-0.178-3.984-0.178-6.4v-5.248c0-4.607,0-5.438,0.073-6.375c0.068-1.015,0.214-1.265,0.826-1.396
		c0.356-0.062,0.518-0.062,0.718-0.062c0.286,0,0.551-0.252,0.551-0.519c0-0.229-0.138-0.517-0.797-0.517
		c-0.631,0-1.778,0.037-2.47,0.056c-0.303,0.01-0.515,0.018-0.567,0.018c-0.033,0-0.172,0-0.385-0.01
		c-0.675-0.021-2.072-0.063-3.113-0.063c-0.5,0-0.756,0.176-0.756,0.517c0,0.242,0.209,0.519,0.51,0.519
		c0.27,0,0.773,0.033,1.016,0.062c0.792,0.114,0.92,0.382,0.99,1.426c0.034,0.926,0.07,1.872,0.07,6.42l-0.002,0.533h-12.631v-0.533
		c0-4.568,0-5.522,0.035-6.449c0.065-1.015,0.223-1.265,0.864-1.396c0.318-0.062,0.514-0.062,0.713-0.062
		c0.259,0,0.513-0.263,0.513-0.519c0-0.341-0.254-0.517-0.755-0.517c-0.682,0-1.896,0.041-2.577,0.061
		c-0.253,0.008-0.427,0.013-0.464,0.013c-0.043,0-0.213,0-0.454-0.01c-0.699-0.021-2.039-0.063-3.077-0.063
		c-0.501,0-0.761,0.176-0.761,0.517c0,0.256,0.26,0.519,0.515,0.519c0.259,0,0.773,0.033,1.008,0.062
		c0.818,0.119,0.964,0.417,1.034,1.399c0.064,0.935,0.064,1.765,0.064,6.372V92c0,2.893,0,5.183-0.173,6.389l-0.014,0.083
		c-0.135,0.889-0.211,1.177-0.584,1.268c-0.255,0.07-0.624,0.126-0.875,0.126c-0.324,0-0.515,0.269-0.515,0.522
		c0,0.195,0.091,0.518,0.757,0.518c0.665,0,1.827-0.06,2.524-0.086c0.288-0.016,0.496-0.022,0.551-0.022
		c0.029,0,0.146,0.004,0.322,0.013c0.65,0.026,2.146,0.096,3.487,0.096c0.706,0,0.761-0.402,0.761-0.518
		c0-0.254-0.178-0.522-0.515-0.522c-0.252,0-0.882-0.056-1.358-0.132c-0.682-0.105-0.78-0.43-0.887-1.333
		c-0.139-1.211-0.139-3.469-0.139-6.334v-2.873h12.633v2.873c0,2.84,0,5.088-0.138,6.295c-0.114,0.936-0.224,1.287-0.639,1.378
		c-0.346,0.085-0.637,0.126-0.844,0.126c-0.32,0-0.513,0.269-0.513,0.522c0,0.343,0.256,0.518,0.761,0.518
		c0.656,0,1.898-0.062,2.559-0.086c0.263-0.016,0.443-0.022,0.482-0.022s0.181,0.004,0.397,0.013
		c0.701,0.029,2.132,0.096,3.406,0.096c0.771,0,0.804-0.428,0.804-0.518C120.279,100.128,120.089,99.865,119.725,99.865"/>
	<path fill="#EFE839" d="M132.813,77.47c-8.601,0-12.469,6.942-12.469,11.87c0,5.754,3.846,11.949,12.291,11.949
		c7.187,0,12.608-5.335,12.608-12.404C145.243,82.059,140.243,77.47,132.813,77.47 M133.509,99.52
		c-5.649,0-9.439-4.413-9.439-10.983c0-5.887,3.194-9.407,8.565-9.407c4.438,0,8.921,3.278,8.921,10.596
		C141.556,99.048,134.847,99.52,133.509,99.52"/>
	<path fill="#EFE839" d="M175.021,99.865c-0.291,0-1.073,0-1.902-0.265c-1.004-0.331-1.262-1.56-1.393-2.85l-2.098-18.245
		c-0.109-0.854-0.453-1.035-0.72-1.035c-0.408,0-0.624,0.413-0.739,0.639l-8.701,17.932l-9.052-17.967
		c-0.258-0.526-0.658-0.604-0.871-0.604c-0.322,0-0.565,0.3-0.618,0.761l-2.241,19.398l-0.025,0.285
		c-0.132,1.071-0.243,1.733-0.934,1.855l-0.087,0.01c-0.381,0.061-0.565,0.085-0.778,0.085c-0.315,0-0.583,0.223-0.583,0.483
		c0,0.205,0.102,0.557,0.8,0.557c0.534,0,1.324-0.049,1.894-0.08c0.33-0.016,0.585-0.028,0.679-0.028
		c0.079,0,0.273,0.007,0.545,0.022c0.608,0.035,1.532,0.086,2.33,0.086c0.69,0,0.827-0.308,0.827-0.557
		c0-0.269-0.275-0.483-0.514-0.483c-0.228,0-0.659-0.038-1.125-0.164c-0.529-0.123-0.529-0.461-0.529-0.572
		c0-0.489,0-1.039,0.038-1.483l1.114-12.646c0.57,1.207,1.619,3.346,2.493,5.125c0.442,0.922,0.847,1.75,1.12,2.304
		c0.794,1.662,2.874,5.56,3.601,6.9c0.607,1.093,0.827,1.504,1.294,1.504c0.462,0,0.67-0.384,1.322-1.724l7.045-14.433l1.397,14.207
		c0.055,0.453,0.019,0.686-0.004,0.772c-0.217,0.078-0.352,0.268-0.352,0.486c0,0.441,0.527,0.527,1.117,0.586
		c1.139,0.104,4.586,0.178,5.266,0.178c0.545,0,0.905-0.224,0.905-0.557C175.542,100.073,175.318,99.865,175.021,99.865"/>
	<path fill="#EFE839" d="M190.464,96.344c-0.455,0-0.531,0.415-0.588,0.683c-0.17,1.173-0.585,1.565-1.223,1.848
		c-0.761,0.297-2.209,0.297-2.982,0.297c-3.03,0-3.334-0.375-3.398-2.122c-0.021-0.421-0.014-2.34-0.003-3.732
		c0.003-0.557,0.003-1.036,0.003-1.318l0.006-2.417c0.717,0,3.766,0.035,4.553,0.134c1.203,0.148,1.285,0.493,1.353,0.734
		c0.121,0.341,0.121,0.617,0.121,0.883c0,0.38,0.24,0.547,0.476,0.547c0.334,0,0.551-0.321,0.551-0.828
		c0-0.178,0.069-1.29,0.142-1.905c0.049-0.62,0.135-1.036,0.192-1.307c0.03-0.158,0.055-0.264,0.055-0.351
		c0-0.38-0.245-0.513-0.448-0.513c-0.202,0-0.336,0.138-0.526,0.339l-0.115,0.123c-0.237,0.239-0.627,0.273-1.268,0.334l-0.074,0.01
		c-0.498,0.05-2.892,0.063-5.016,0.063v-0.04v-8.07c0-0.019,0-0.035,0.006-0.042c0.729,0,3.848,0.04,4.303,0.097
		c1.676,0.21,1.846,0.409,1.988,0.741c0.122,0.307,0.156,0.752,0.156,0.948c0,0.605,0.389,0.653,0.516,0.653
		c0.284,0,0.479-0.269,0.539-0.523c0.049-0.231,0.084-0.749,0.133-1.395c0.024-0.262,0.039-0.495,0.047-0.601
		c0.049-0.498,0.121-0.807,0.181-1.033c0.039-0.158,0.066-0.271,0.066-0.388c0-0.524-0.343-0.546-0.409-0.546
		c-0.142,0-0.267,0.051-0.367,0.095c-0.04,0.022-0.083,0.041-0.091,0.045l-0.194,0.031c-0.285,0.041-0.723,0.116-1.182,0.139
		c-0.202,0.009-0.926,0.017-2.154,0.017c-1.691,0-3.874-0.011-4.764-0.017h-0.405c-0.043,0-0.207,0-0.465-0.008
		c-0.712-0.022-2.07-0.064-3.103-0.064c-0.498,0-0.758,0.177-0.758,0.518c0,0.255,0.26,0.517,0.51,0.517
		c0.286,0,0.797,0.036,1.022,0.063c0.812,0.112,0.95,0.416,1.016,1.398c0.078,0.935,0.078,1.766,0.078,6.371v5.248
		c0,2.895,0,5.187-0.174,6.39l-0.017,0.093c-0.141,0.879-0.221,1.192-0.555,1.253c-0.111,0.015-0.241,0.037-0.364,0.064
		c-0.198,0.035-0.398,0.067-0.548,0.067c-0.322,0-0.511,0.267-0.511,0.521c0,0.195,0.098,0.52,0.753,0.52
		c0.52,0,1.278-0.045,1.794-0.077c0.661-0.033,1.255-0.033,1.32-0.033c0.438,0,1.252,0,2.548,0.07l0.756,0.022
		c1.211,0.038,2.718,0.082,4.596,0.082c1.203,0,1.711,0,1.976-0.969c0.179-0.66,0.428-2.705,0.428-2.936
		C190.943,96.411,190.61,96.344,190.464,96.344"/>
	<path fill="#EFE839" d="M36.017,123.298c-0.99,1.432-2.344,2.632-4.058,3.606c-3.762,2.021-7.498,2.329-11.207,0.931
		c-1.099-0.398-2.008-0.839-2.719-1.32c-0.906-0.589-1.608-1.302-2.107-2.14c-0.864-1.421-0.704-2.486,0.477-3.217
		c0.526-0.288,0.845-0.301,0.972-0.038l-0.541,0.221c-0.231,0.154-0.377,0.331-0.431,0.536c-0.342,0.978,0.345,1.882,2.06,2.722
		c0.605,0.286,1.307,0.555,2.101,0.804c0.608,0.18,1.14,0.307,1.608,0.393c3.46,0.589,6.641,0.384,9.536-0.62
		c1.262-0.467,2.061-0.912,2.393-1.338c0.467-0.619,0.146-1.339-0.948-2.165c-2.224-1.714-5.263-2.759-9.103-3.132
		c-3.405-0.328-7.012-0.117-10.82,0.642c-0.658,0.125-1.31,0.262-1.953,0.412c-0.813,0.204-1.581,0.428-2.308,0.682
		c-1.885,0.612-3.376,1.353-4.471,2.204c-1.745,1.317-2.446,2.653-2.104,4.017c0.33,1.306,1.459,2.233,3.383,2.798
		c1.219,0.373,2.635,0.681,4.239,0.93c0.673,0.108,1.43,0.215,2.269,0.31c0.641,0.082,1.426,0.164,2.345,0.245l4.967,0.535
		c1.948,0.225,3.694,0.476,5.235,0.765c2.404,0.439,3.095,1.428,2.076,2.966c-0.851,1.292-2.195,2.516-4.037,3.667
		c-1.582,0.988-3.069,1.673-4.491,2.06c-2.06,0.55-4.328,0.757-6.818,0.62c-1.398-0.07-2.581-0.28-3.543-0.62
		c-1.112-0.387-1.89-0.935-2.326-1.648c-0.348-0.521-0.468-1.112-0.375-1.771c0.071-0.496,0.275-1.079,0.623-1.752l0.43-0.78
		c0.054-0.112,0.088-0.174,0.105-0.188l0.307-0.538c0.262-0.504,0.358-0.882,0.291-1.128c-2.679-0.291-4.685-1.306-6.02-3.051
		c-1.576-2.034-1.386-4.346,0.582-6.943c1.078-1.454,3.096-2.819,6.032-4.098c2.611-1.141,5.186-1.908,7.728-2.307
		c3.449-0.609,6.899-0.733,10.36-0.396c2.128,0.249,4.144,0.649,6.038,1.196c1.948,0.566,3.34,1.168,4.184,1.814
		c0.779,0.59,1.137,1.251,1.069,1.977C36.99,121.695,36.647,122.408,36.017,123.298 M24.026,136.216
		c0.099-0.549-1.462-1.058-4.679-1.521c-0.713-0.095-1.713-0.23-3.008-0.393l-6.65-0.863c-1.033-0.156-1.773-0.275-2.223-0.371
		H7.401l-0.206,1.669c-0.164,1.248,0.481,2.264,1.935,3.047c1.139,0.589,2.508,0.954,4.1,1.092c1.551,0.163,3.234,0.082,5.05-0.247
		c1.62-0.291,2.946-0.681,3.974-1.173c0.661-0.302,1.121-0.551,1.384-0.746C23.853,136.547,23.988,136.383,24.026,136.216"/>
	<path fill="#EFE839" d="M39.447,133.147c-0.662,0.8-1.39,1.573-2.186,2.327c-0.933,0.894-1.779,1.556-2.534,1.982
		c-1.362,0.723-2.642,1.099-3.852,1.112c-1.608,0.013-2.578-0.713-2.905-2.186c-0.3-1.224,0.196-2.617,1.502-4.179
		c1.332-1.61,3.01-2.786,5.031-3.527c2.084-0.768,3.481-0.822,4.181-0.164c0.724,0.688,0.098,1.791-1.895,3.316
		c-0.989,0.757-2.056,1.421-3.194,2c-1.213,0.604-2.158,0.938-2.846,1.01c-0.011,0.263,0.042,0.552,0.167,0.862l0.166,0.312
		c0.039,0.084,0.088,0.149,0.145,0.203c0.974,1.056,2.419,0.952,4.345-0.329c0.699-0.451,1.428-1.042,2.182-1.769
		c0.566-0.548,1.072-1.101,1.525-1.653c0.07-0.079,0.141-0.024,0.228,0.17C39.603,132.824,39.581,132.998,39.447,133.147
		 M35.819,131.026c0.604-0.755,0.802-1.287,0.597-1.607c-0.219-0.313-0.805-0.268-1.748,0.144c-2.171,0.921-3.422,2.412-3.752,4.476
		c0.987-0.237,1.978-0.682,2.968-1.344C34.733,132.146,35.38,131.589,35.819,131.026"/>
	<path fill="#EFE839" d="M47.937,134.612c0,0.083-0.035,0.169-0.119,0.265c-1.168,1.226-2.432,2.22-3.789,2.99
		c-1.874,0.963-3.051,1.034-3.547,0.224c-0.453-0.738-0.241-1.644,0.641-2.715l1.628-2.002c0.465-0.574,0.732-0.959,0.799-1.15
		c0.155-0.385-0.088-0.495-0.718-0.332l-0.803,0.229c-0.287,0.064-0.481,0.064-0.578,0c-0.247,0.326-0.582,0.745-1.006,1.253
		l-1.176,1.321c-0.329,0.342-0.807,0.767-1.418,1.276c-0.775,0.604-1.502,1.097-2.189,1.484c-0.139,0.053-0.307,0.01-0.515-0.126
		c-0.189-0.138-0.213-0.239-0.06-0.306c0.575-0.207,1.246-0.629,2.017-1.258l0.929-0.849c0.121-0.121,0.252-0.249,0.392-0.392
		c0.121-0.119,0.246-0.243,0.371-0.367c1.125-1.222,1.813-2.026,2.06-2.412c-0.276-0.504-0.243-1.213,0.101-2.119
		c0.29-0.798,0.769-1.641,1.442-2.538c1.523-2.014,2.671-2.947,3.442-2.798c0.688,0.14,0.524,1.123-0.496,2.965
		c-0.949,1.718-1.937,3.063-2.966,4.036c0.138-0.036,0.329-0.108,0.577-0.207l2.512-0.945c0.674-0.259,1.188-0.279,1.545-0.063
		c0.389,0.226,0.399,0.594,0.043,1.117c-0.195,0.284-0.435,0.604-0.723,0.946l-0.779,0.885c-0.663,0.756-1.185,1.467-1.572,2.141
		c-0.379,0.648-0.432,1.1-0.141,1.362c0.285,0.247,0.742,0.157,1.361-0.269c0.106-0.067,0.266-0.192,0.473-0.371l0.681-0.599
		c0.535-0.479,0.957-0.869,1.257-1.172c0.067-0.056,0.148-0.056,0.246,0c0.043,0.028,0.069,0.099,0.078,0.225V134.612z"/>
	<path fill="#EFE839" d="M60.457,128.162c-0.744,1.445-1.951,3.121-3.626,5.03c-1.034,1.191-2.05,2.217-3.054,3.068
		c-1.095,0.932-2.049,1.536-2.86,1.813c-0.657,0.219-1.167,0.3-1.523,0.247c-0.549-0.083-0.818-0.457-0.806-1.135
		c0.029-0.921,0.418-2.277,1.177-4.075c0.715-1.745,1.433-3.115,2.161-4.102c0.193-0.29,0.694-0.502,1.506-0.64
		c0.713-0.136,1.244-0.164,1.584-0.083c0.096,0,0.145,0.043,0.145,0.126c-0.015,0.065-0.063,0.121-0.145,0.161
		c-0.166,0.164-0.371,0.394-0.621,0.682c-0.286,0.373-0.543,0.72-0.782,1.05c-0.563,0.855-1.008,1.68-1.337,2.473
		c-0.409,0.948-0.653,1.843-0.718,2.679c-0.056,0.576,0.297,0.653,1.047,0.227c1.28-0.726,2.5-1.882,3.667-3.46
		c-0.082-0.374-0.051-0.782,0.085-1.237c0.467-1.73,1.297-3.018,2.494-3.867c0.714-0.552,1.248-0.684,1.606-0.395
		C60.8,126.997,60.8,127.476,60.457,128.162"/>
	<path fill="#EFE839" d="M64.832,129.542c-0.412,0.467-0.778,0.922-1.091,1.36c-0.634,0.863-1.175,1.703-1.628,2.516
		c-0.555,1.003-0.922,1.92-1.113,2.759c-0.164,0.632,0.092,0.832,0.763,0.597c0.108-0.026,0.301-0.138,0.576-0.328
		c0.247-0.182,0.546-0.405,0.884-0.68c0.732-0.591,1.328-1.129,1.794-1.606c0.071-0.084,0.15-0.098,0.247-0.041
		c0.054,0.041,0.091,0.138,0.103,0.288c0.016,0.139,0.009,0.269-0.02,0.39l-0.164,0.205c-0.742,0.715-1.597,1.391-2.556,2.021
		c-1.032,0.688-1.825,1.074-2.389,1.17c-0.673,0.168-1.215,0.195-1.627,0.087c-0.589-0.152-0.821-0.568-0.702-1.257
		c0.095-0.513,0.421-1.245,0.971-2.204l1.276-2.103c0.412-0.675,0.886-1.403,1.418-2.182l0.91-1.32
		c0.276-0.385,0.949-0.647,2.019-0.784c1.065-0.151,1.434-0.067,1.092,0.247L64.832,129.542z M67.197,127.154
		c-0.629,0.48-1.357,0.659-2.18,0.537c-0.715-0.111-1.181-0.448-1.402-1.014c-0.219-0.589-0.037-1.151,0.557-1.684
		c0.574-0.539,1.316-0.731,2.222-0.58c0.744,0.081,1.203,0.445,1.384,1.093C67.971,126.152,67.778,126.702,67.197,127.154"/>
	<path fill="#EFE839" d="M76.111,134.343c-0.539,0.533-1.046,1.01-1.526,1.423c-0.814,0.688-1.744,1.318-2.802,1.894
		c-1.292,0.672-2.543,0.976-3.75,0.909c-1.483-0.084-2.367-0.784-2.657-2.104c-0.302-1.248,0.178-2.685,1.443-4.306
		c1.318-1.677,2.972-2.884,4.964-3.628c1.744-0.644,3.096-0.727,4.058-0.246c0.551,0.276,0.672,0.798,0.372,1.567l-0.167,0.391
		c-0.066,0.137-0.164,0.316-0.286,0.535l-0.475,0.889c-0.012,0.038,0.033,0.079,0.144,0.123c0.108,0.039,0.151,0.081,0.126,0.125
		c-0.098,0.23-0.518,0.538-1.258,0.926c-0.827,0.425-1.421,0.528-1.79,0.306c-0.347-0.229-0.189-0.773,0.473-1.624l1.421-1.753
		c0.216-0.344,0.216-0.614,0-0.803c-0.21-0.179-0.542-0.206-1.011-0.081c-1.165,0.314-2.205,0.877-3.112,1.687
		c-0.933,0.867-1.577,1.832-1.933,2.907c-0.374,1.07-0.332,1.916,0.121,2.533c0.836,1.178,2.131,1.317,3.872,0.409
		c0.785-0.382,1.705-1.065,2.763-2.038c0.812-0.754,1.458-1.438,1.955-2.036c0.082-0.1,0.186-0.052,0.309,0.144
		c0.137,0.192,0.152,0.35,0.041,0.474L76.111,134.343z"/>
	<path fill="#EFE839" d="M87.511,133.147c-0.659,0.8-1.387,1.573-2.184,2.327c-0.933,0.894-1.781,1.556-2.533,1.982
		c-1.359,0.723-2.646,1.099-3.853,1.112c-1.606,0.013-2.577-0.713-2.905-2.186c-0.304-1.224,0.199-2.617,1.508-4.179
		c1.328-1.61,3-2.786,5.024-3.527c2.083-0.768,3.479-0.822,4.177-0.164c0.731,0.688,0.1,1.791-1.89,3.316
		c-0.994,0.757-2.057,1.421-3.197,2c-1.206,0.604-2.155,0.938-2.84,1.01c-0.016,0.263,0.039,0.552,0.164,0.862l0.164,0.312
		c0.039,0.084,0.092,0.149,0.144,0.203c0.973,1.056,2.424,0.952,4.348-0.329c0.699-0.451,1.428-1.042,2.18-1.769
		c0.566-0.548,1.078-1.101,1.529-1.653c0.068-0.079,0.145-0.024,0.224,0.17C87.665,132.824,87.65,132.998,87.511,133.147
		 M83.884,131.026c0.605-0.755,0.803-1.287,0.598-1.607c-0.22-0.313-0.803-0.268-1.752,0.144c-2.168,0.921-3.418,2.412-3.748,4.476
		c0.988-0.237,1.974-0.682,2.965-1.344C82.798,132.146,83.443,131.589,83.884,131.026"/>
	<path fill="#EFE839" d="M106.783,119.861c-0.92,0.865-1.807,1.875-2.658,3.026c-0.934,1.225-1.817,2.389-2.638,3.503
		c-1.005,1.373-1.882,2.622-2.639,3.749c-0.889,1.331-1.598,2.489-2.119,3.467c-0.588,1.095-0.95,1.954-1.072,2.571
		c-0.163,0.633,0.089,0.832,0.763,0.598c0.109-0.028,0.309-0.139,0.596-0.328c0.261-0.183,0.564-0.407,0.908-0.682
		c0.727-0.591,1.316-1.129,1.771-1.606c0.097-0.084,0.174-0.097,0.226-0.041c0.055,0.041,0.098,0.138,0.122,0.29
		c0.015,0.151,0,0.278-0.041,0.389l-0.552,0.619c-1.679,1.618-3.196,2.546-4.555,2.777c-0.669,0.153-1.21,0.18-1.609,0.088
		c-0.591-0.153-0.829-0.57-0.718-1.257c0-0.045,0.029-0.125,0.08-0.249l0.145-0.353c-0.729,0.646-1.572,1.155-2.532,1.526
		c-1.224,0.48-2.244,0.606-3.072,0.371c-0.977-0.26-1.474-0.99-1.504-2.185c-0.011-1.194,0.483-2.437,1.484-3.729
		c0.934-1.196,2.12-2.204,3.544-3.028c2.554-1.41,4.637-1.693,6.242-0.845c0.015,0.017,0.043,0.029,0.084,0.04
		c0.04,0.014,0.066,0.039,0.083,0.064c0.398-0.62,0.853-1.282,1.356-1.998l1.443-1.979c0.456-0.644,0.997-1.374,1.627-2.181
		l1.645-2.122c0.291-0.387,1.049-0.646,2.268-0.782c0.485-0.058,0.851-0.066,1.117-0.022
		C106.867,119.608,106.93,119.712,106.783,119.861 M94.996,132.386c0.359-0.589,0.601-1.101,0.724-1.521
		c0.342-1.25-0.283-1.772-1.873-1.57c-1.199,0.165-2.353,0.813-3.462,1.938c-1.225,1.21-1.842,2.494-1.854,3.854
		c-0.028,1.417,0.601,1.964,1.875,1.646c1.096-0.26,2.005-0.823,2.719-1.688l0.845-1.094L94.996,132.386z"/>
	<path fill="#EFE839" d="M155.335,145.88c-0.524,1.458-1.623,2.707-3.295,3.75c-1.636,1.003-3.071,1.383-4.307,1.154
		c-2.443-0.536-5.919-2.523-10.425-5.954c-2.047-1.581-4.094-3.318-6.138-5.212c-2.255-2.092-4.408-4.271-6.473-6.552
		c-1.326,1.715-2.201,3.081-2.615,4.102c-0.354,0.862-0.381,1.486-0.08,1.87c0.08,0.098,0.065,0.176-0.043,0.23
		c-1.125,0.562-2.252,0.953-3.375,1.173c-1.291,0.245-1.973,0.091-2.042-0.477c0.014-0.341,0.263-0.927,0.739-1.749
		c0.415-0.689,0.982-1.525,1.693-2.515c0.603-0.81,1.271-1.671,1.996-2.593l1.61-1.958c1.697-1.977,3.28-3.723,4.734-5.23
		c1.719-1.801,3.413-3.428,5.092-4.888c0.328-0.287,0.78-0.372,1.358-0.269c0.573,0.113,0.733,0.3,0.476,0.56
		c-3.201,3.268-5.934,6.515-8.201,9.742c2.97-0.04,6.064-0.802,9.29-2.283c3.077-1.446,5.186-3.017,6.328-4.721
		c0.959-1.454,1.179-2.802,0.656-4.041c-0.482-1.133-1.427-1.886-2.842-2.239c-2.61-0.687-5.886-0.635-9.826,0.167
		c-1.94,0.395-3.813,0.952-5.621,1.665c-1.926,0.756-3.655,1.646-5.195,2.681c-0.468,0.313-0.907,0.636-1.316,0.966
		c-0.524,0.414-0.987,0.816-1.403,1.213c-1.073,1.046-1.694,1.994-1.875,2.849c-0.094,0.491,0.028,0.852,0.374,1.09
		c-1.172,0.384-2.303,0.266-3.402-0.353c-1.135-0.631-1.325-1.375-0.556-2.224c1.756-2.004,4.358-3.853,7.807-5.541
		c3.354-1.647,6.774-2.796,10.28-3.44c2.446-0.469,5.046-0.651,7.811-0.557c3.112,0.1,5.55,0.548,7.289,1.359
		c2.229,1.016,3.161,2.519,2.806,4.514c-0.316,1.786-1.445,3.343-3.382,4.677c-0.863,0.603-1.826,1.169-2.886,1.709
		c-1.19,0.601-2.479,1.132-3.852,1.583c-1.535,0.537-3.16,0.97-4.861,1.301c-1.879,0.369-3.851,0.634-5.91,0.782
		c1.193,1.167,3.009,2.644,5.438,4.427c2.39,1.764,4.91,3.471,7.563,5.132c2.166,1.386,4.162,2.558,5.972,3.504
		c1.962,1.043,3.546,1.747,4.735,2.119c1.156,0.388,2.289,0.393,3.4,0.022c1.143-0.384,1.879-1.022,2.205-1.918
		c0.025-0.092,0.092-0.067,0.191,0.085C155.348,145.728,155.38,145.828,155.335,145.88"/>
	<path fill="#EFE839" d="M151.534,133.147c-0.661,0.8-1.387,1.573-2.184,2.327c-0.937,0.894-1.781,1.556-2.535,1.982
		c-1.36,0.723-2.644,1.099-3.853,1.112c-1.608,0.013-2.575-0.713-2.905-2.186c-0.299-1.224,0.198-2.617,1.508-4.179
		c1.327-1.61,3.004-2.786,5.026-3.527c2.086-0.768,3.481-0.822,4.181-0.164c0.726,0.688,0.095,1.791-1.896,3.316
		c-0.991,0.757-2.057,1.421-3.193,2c-1.211,0.604-2.16,0.938-2.845,1.01c-0.015,0.263,0.041,0.552,0.168,0.862l0.164,0.312
		c0.037,0.084,0.088,0.149,0.144,0.203c0.977,1.056,2.42,0.952,4.346-0.329c0.7-0.451,1.429-1.042,2.186-1.769
		c0.561-0.548,1.069-1.101,1.522-1.653c0.068-0.079,0.142-0.024,0.229,0.17C151.69,132.824,151.672,132.998,151.534,133.147
		 M147.907,131.026c0.605-0.755,0.808-1.287,0.601-1.607c-0.224-0.313-0.81-0.268-1.753,0.144c-2.171,0.921-3.417,2.412-3.749,4.476
		c0.989-0.237,1.976-0.682,2.965-1.344C146.819,132.146,147.469,131.589,147.907,131.026"/>
	<path fill="#EFE839" d="M159.349,127.835c-0.478,0.714-0.832,1.707-1.049,2.987c0.99-0.167,1.555,0.095,1.713,0.779
		c0.133,0.621,0,1.12-0.416,1.507h-0.043c-0.027,0-0.039-0.017-0.039-0.041c0.096-0.854-0.346-1.184-1.318-0.989
		c-0.206,2.294-1.068,4.036-2.577,5.233c-1.328,1.054-2.716,1.497-4.158,1.317c-1.76-0.21-2.294-1.096-1.608-2.658h-0.041
		c-0.11,0.122-0.377,0.352-0.803,0.678c-0.496,0.374-0.979,0.681-1.443,0.929c-0.18,0.07-0.358,0.028-0.533-0.122
		c-0.18-0.149-0.22-0.241-0.122-0.27c0.959-0.412,2.03-1.221,3.21-2.431l3.895-4.078c0.304-0.303,0.687-0.67,1.155-1.115
		l0.266-0.268l0.23-0.226l1.151-1.153c0.081-0.066,0.247-0.144,0.495-0.225l0.798-0.268l1.486-0.437
		c0.066,0,0.121,0.023,0.164,0.063c0.029,0.074,0.017,0.133-0.043,0.189L159.349,127.835z M155.761,132.55
		c-0.476,0.138-1.031,0.349-1.662,0.642c-0.755,0.368-1.354,0.746-1.799,1.132c-1.027,0.852-1.576,1.647-1.645,2.386
		c-0.053,0.649,0.227,1.021,0.845,1.115c0.809,0.11,1.608-0.198,2.389-0.927C154.903,135.952,155.532,134.5,155.761,132.55
		 M156.651,129.459c-1.221,1.03-2.522,2.273-3.896,3.732c0.523-0.374,0.995-0.674,1.4-0.909c0.579-0.328,1.171-0.604,1.777-0.824
		C156.063,130.784,156.307,130.118,156.651,129.459"/>
	<path fill="#EFE839" d="M165.992,129.542c-0.409,0.467-0.774,0.922-1.093,1.36c-0.633,0.863-1.172,1.703-1.625,2.516
		c-0.552,1.003-0.924,1.92-1.114,2.759c-0.164,0.632,0.092,0.832,0.76,0.597c0.112-0.026,0.301-0.138,0.58-0.328
		c0.244-0.182,0.542-0.405,0.884-0.68c0.729-0.591,1.329-1.129,1.791-1.606c0.072-0.084,0.155-0.098,0.252-0.041
		c0.052,0.041,0.086,0.138,0.103,0.288c0.011,0.139,0.008,0.269-0.023,0.39l-0.165,0.205c-0.74,0.715-1.591,1.391-2.552,2.021
		c-1.032,0.688-1.83,1.074-2.392,1.17c-0.676,0.168-1.215,0.195-1.632,0.087c-0.589-0.152-0.821-0.568-0.696-1.257
		c0.097-0.513,0.418-1.245,0.97-2.204l1.274-2.103c0.415-0.675,0.89-1.403,1.424-2.182l0.907-1.32
		c0.273-0.385,0.948-0.647,2.021-0.784c1.065-0.151,1.431-0.067,1.089,0.247L165.992,129.542z M168.359,127.154
		c-0.628,0.48-1.36,0.659-2.185,0.537c-0.707-0.111-1.179-0.448-1.396-1.014c-0.225-0.589-0.036-1.151,0.552-1.684
		c0.58-0.539,1.321-0.731,2.228-0.58c0.737,0.081,1.205,0.445,1.381,1.093C169.129,126.152,168.938,126.702,168.359,127.154"/>
	<path fill="#EFE839" d="M187.2,119.861c-0.92,0.865-1.805,1.875-2.656,3.026c-0.936,1.225-1.814,2.389-2.641,3.503
		c-1,1.373-1.882,2.622-2.635,3.749c-0.893,1.331-1.599,2.489-2.121,3.467c-0.591,1.095-0.948,1.954-1.074,2.571
		c-0.164,0.633,0.09,0.832,0.762,0.598c0.112-0.028,0.313-0.139,0.601-0.328c0.261-0.183,0.561-0.407,0.905-0.682
		c0.727-0.591,1.32-1.129,1.772-1.606c0.095-0.084,0.17-0.097,0.228-0.041c0.05,0.041,0.096,0.138,0.119,0.29
		c0.016,0.151,0,0.278-0.036,0.389l-0.558,0.619c-1.679,1.618-3.194,2.546-4.552,2.777c-0.674,0.153-1.213,0.18-1.606,0.088
		c-0.596-0.153-0.83-0.57-0.721-1.257c0-0.045,0.028-0.125,0.079-0.249l0.146-0.353c-0.727,0.646-1.57,1.155-2.533,1.526
		c-1.226,0.48-2.247,0.606-3.075,0.371c-0.972-0.26-1.468-0.99-1.5-2.185c-0.013-1.194,0.479-2.437,1.483-3.729
		c0.934-1.196,2.112-2.204,3.54-3.028c2.556-1.41,4.64-1.693,6.246-0.845c0.017,0.017,0.043,0.029,0.082,0.04
		c0.037,0.014,0.066,0.039,0.079,0.064c0.405-0.62,0.852-1.282,1.36-1.998l1.445-1.979c0.451-0.644,0.992-1.374,1.626-2.181
		l1.649-2.122c0.287-0.387,1.043-0.646,2.269-0.782c0.478-0.058,0.845-0.066,1.106-0.022
		C187.285,119.608,187.352,119.712,187.2,119.861 M175.413,132.386c0.357-0.589,0.603-1.101,0.727-1.521
		c0.339-1.25-0.287-1.772-1.878-1.57c-1.195,0.165-2.351,0.813-3.458,1.938c-1.225,1.21-1.841,2.494-1.857,3.854
		c-0.024,1.417,0.601,1.964,1.877,1.646c1.099-0.26,2-0.823,2.718-1.688l0.85-1.094L175.413,132.386z"/>
	<path fill="#EFE839" d="M191.97,133.147c-0.662,0.8-1.385,1.573-2.184,2.327c-0.935,0.894-1.783,1.556-2.539,1.982
		c-1.359,0.723-2.64,1.099-3.851,1.112c-1.605,0.013-2.573-0.713-2.903-2.186c-0.3-1.224,0.2-2.617,1.503-4.179
		c1.335-1.61,3.011-2.786,5.028-3.527c2.089-0.768,3.482-0.822,4.184-0.164c0.725,0.688,0.094,1.791-1.902,3.316
		c-0.983,0.757-2.05,1.421-3.189,2c-1.209,0.604-2.158,0.938-2.843,1.01c-0.015,0.263,0.041,0.552,0.162,0.862l0.169,0.312
		c0.038,0.084,0.087,0.149,0.145,0.203c0.979,1.056,2.421,0.952,4.344-0.329c0.705-0.451,1.433-1.042,2.187-1.769
		c0.56-0.548,1.072-1.101,1.523-1.653c0.069-0.079,0.143-0.024,0.229,0.17C192.124,132.824,192.105,132.998,191.97,133.147
		 M188.343,131.026c0.605-0.755,0.803-1.287,0.603-1.607c-0.228-0.313-0.81-0.268-1.756,0.144c-2.171,0.921-3.421,2.412-3.754,4.476
		c0.99-0.237,1.979-0.682,2.971-1.344C187.256,132.146,187.904,131.589,188.343,131.026"/>
	<path fill="#EFE839" d="M202.997,134.796c0,0.014-0.02,0.042-0.063,0.08c-0.039,0.056-0.066,0.101-0.08,0.125
		c-1.91,1.854-3.563,2.969-4.962,3.336c-0.885,0.196-1.527,0.147-1.944-0.146c-0.588-0.353-0.533-1.213,0.17-2.571
		c0.356-0.644,0.805-1.345,1.34-2.102c0.275-0.437,0.603-0.926,0.986-1.465l0.907-1.275c0.027-0.026,0.027-0.059,0-0.103
		c-0.014-0.041-0.053-0.045-0.124-0.02c-0.825,0.149-2.003,1.011-3.542,2.573c-1.375,1.401-2.653,2.962-3.832,4.677
		c-0.085,0.137-0.271,0.241-0.555,0.31c-0.261,0.071-0.554,0.103-0.867,0.103c-0.767-0.026-1.088-0.222-0.946-0.574
		c0.41-1.128,1.033-2.454,1.873-3.979c0.92-1.661,1.877-3.15,2.866-4.471c0.409-0.522,1.281-0.817,2.613-0.884
		c0.522-0.043,0.659,0.063,0.413,0.307c-0.825,0.91-1.512,1.778-2.059,2.616c-0.564,0.798-1.019,1.523-1.363,2.185v0.087
		l1.754-1.672c0.769-0.716,1.461-1.312,2.08-1.795c1.688-1.318,3.043-1.948,4.057-1.892c1.13,0,1.54,0.377,1.235,1.131
		c-0.056,0.136-0.158,0.321-0.31,0.557l-1.936,2.451c-0.572,0.742-1.003,1.32-1.275,1.732c-0.425,0.644-0.699,1.191-0.824,1.647
		c-0.137,0.396-0.09,0.698,0.143,0.905c0.22,0.193,0.52,0.201,0.91,0.02c0.288-0.164,0.769-0.528,1.439-1.092
		c0.617-0.521,1.146-0.999,1.588-1.439c0.051-0.113,0.129-0.122,0.225-0.041c0.056,0.041,0.091,0.137,0.103,0.289
		C203.047,134.559,203.04,134.685,202.997,134.796"/>
	<path fill="#EFE839" d="M213.655,134.343c-0.535,0.533-1.043,1.01-1.521,1.423c-0.813,0.688-1.745,1.318-2.803,1.894
		c-1.291,0.672-2.538,0.976-3.748,0.909c-1.485-0.084-2.371-0.784-2.658-2.104c-0.306-1.248,0.177-2.685,1.442-4.306
		c1.317-1.677,2.97-2.884,4.964-3.628c1.743-0.644,3.095-0.727,4.056-0.246c0.552,0.276,0.676,0.798,0.375,1.567l-0.166,0.391
		c-0.071,0.137-0.168,0.316-0.287,0.535l-0.478,0.889c-0.014,0.038,0.033,0.079,0.146,0.123c0.109,0.039,0.152,0.081,0.123,0.125
		c-0.095,0.23-0.513,0.538-1.258,0.926c-0.822,0.425-1.419,0.528-1.789,0.306c-0.343-0.229-0.188-0.773,0.475-1.624l1.422-1.753
		c0.22-0.344,0.22-0.614,0-0.803c-0.209-0.179-0.545-0.206-1.011-0.081c-1.167,0.314-2.204,0.877-3.112,1.687
		c-0.932,0.867-1.579,1.832-1.937,2.907c-0.374,1.07-0.331,1.916,0.126,2.533c0.839,1.178,2.127,1.317,3.873,0.409
		c0.784-0.382,1.702-1.065,2.757-2.038c0.813-0.754,1.464-1.438,1.962-2.036c0.081-0.1,0.185-0.052,0.309,0.144
		c0.138,0.192,0.146,0.35,0.036,0.474L213.655,134.343z"/>
	<path fill="#EFE839" d="M225.06,133.147c-0.66,0.8-1.385,1.573-2.187,2.327c-0.935,0.894-1.778,1.556-2.532,1.982
		c-1.359,0.723-2.644,1.099-3.849,1.112c-1.61,0.013-2.58-0.713-2.907-2.186c-0.303-1.224,0.197-2.617,1.504-4.179
		c1.33-1.61,3.004-2.786,5.026-3.527c2.087-0.768,3.479-0.822,4.181-0.164c0.729,0.688,0.095,1.791-1.894,3.316
		c-0.99,0.757-2.056,1.421-3.196,2c-1.207,0.604-2.157,0.938-2.84,1.01c-0.016,0.263,0.04,0.552,0.164,0.862l0.166,0.312
		c0.038,0.084,0.09,0.149,0.143,0.203c0.974,1.056,2.424,0.952,4.348-0.329c0.699-0.451,1.427-1.042,2.183-1.769
		c0.562-0.548,1.069-1.101,1.524-1.653c0.068-0.079,0.146-0.024,0.229,0.17C225.218,132.824,225.196,132.998,225.06,133.147
		 M221.434,131.026c0.602-0.755,0.803-1.287,0.598-1.607c-0.222-0.313-0.805-0.268-1.751,0.144c-2.169,0.921-3.417,2.412-3.75,4.476
		c0.986-0.237,1.979-0.682,2.966-1.344C220.347,132.146,220.994,131.589,221.434,131.026"/>
	<path fill="#EFE839" d="M232.876,127.835c-0.478,0.714-0.83,1.707-1.049,2.987c0.989-0.167,1.562,0.095,1.709,0.779
		c0.137,0.621,0,1.12-0.412,1.507h-0.039c-0.034,0-0.045-0.017-0.045-0.041c0.097-0.854-0.34-1.184-1.315-0.989
		c-0.209,2.294-1.065,4.036-2.575,5.233c-1.335,1.054-2.723,1.497-4.161,1.317c-1.758-0.21-2.293-1.096-1.608-2.658h-0.039
		c-0.11,0.122-0.381,0.352-0.807,0.678c-0.494,0.374-0.974,0.681-1.442,0.929c-0.179,0.07-0.355,0.028-0.536-0.122
		c-0.178-0.149-0.216-0.241-0.122-0.27c0.963-0.412,2.03-1.221,3.215-2.431l3.894-4.078c0.301-0.303,0.683-0.67,1.151-1.115
		l0.269-0.268l0.229-0.226l1.154-1.153c0.08-0.066,0.244-0.144,0.492-0.225l0.802-0.268l1.485-0.437
		c0.066,0,0.125,0.023,0.164,0.063c0.028,0.074,0.014,0.133-0.039,0.189L232.876,127.835z M229.292,132.55
		c-0.479,0.138-1.037,0.349-1.67,0.642c-0.758,0.368-1.352,0.746-1.789,1.132c-1.035,0.852-1.586,1.647-1.649,2.386
		c-0.054,0.649,0.226,1.021,0.843,1.115c0.813,0.11,1.606-0.198,2.387-0.927C228.432,135.952,229.057,134.5,229.292,132.55
		 M230.175,129.459c-1.218,1.03-2.518,2.273-3.893,3.732c0.523-0.374,0.991-0.674,1.403-0.909c0.578-0.328,1.17-0.604,1.771-0.824
		C229.594,130.784,229.833,130.118,230.175,129.459"/>
</g>
</svg>
